<svg version="1.1" id="Layer_1" xmlns="http://www.w3.org/2000/svg" xmlns:xlink="http://www.w3.org/1999/xlink" x="0px" y="0px"
	 width="100%" viewBox="0 0 1556 2000" enable-background="new 0 0 1556 2000" xml:space="preserve">
<path fill="#FFFFFF" opacity="1.000000" stroke="none" 
	d="
M766.000000,2001.000000 
	C510.666656,2001.000000 255.833328,2001.000000 1.000000,2001.000000 
	C1.000000,1334.333374 1.000000,667.666687 1.000000,1.000000 
	C519.666687,1.000000 1038.333374,1.000000 1557.000000,1.000000 
	C1557.000000,667.666687 1557.000000,1334.333374 1557.000000,2001.000000 
	C1293.500000,2001.000000 1030.000000,2001.000000 766.000000,2001.000000 
M914.742126,912.636780 
	C914.702332,912.796143 914.662476,912.955444 914.622681,913.114868 
	C914.816589,912.938354 915.010437,912.761841 914.690125,913.264771 
	C916.545715,914.198120 918.401367,915.131409 920.256958,916.064697 
	C920.691956,915.449219 921.126953,914.833740 921.561951,914.218262 
	C920.154541,912.009155 918.747131,909.799988 917.407166,907.696716 
	C916.439941,909.859436 915.805237,911.278625 914.742126,912.636780 
M556.266113,875.219116 
	C556.448547,875.364380 556.630920,875.509583 556.320251,876.110291 
	C549.823425,886.346069 539.459656,888.008545 527.246338,888.250916 
	C532.244690,892.328247 529.173157,894.584229 526.718506,896.854431 
	C524.974609,898.467224 523.032410,899.865662 521.178772,901.359741 
	C521.516357,901.796265 521.853943,902.232788 522.191467,902.669312 
	C524.826904,900.867371 527.458496,899.059753 530.098999,897.265137 
	C532.666687,895.519897 535.062866,893.316467 537.887024,892.234436 
	C539.473450,891.626709 541.773621,892.881958 543.752197,893.297852 
	C543.202820,894.675842 542.559814,896.025513 542.131348,897.440186 
	C541.734863,898.749451 541.567993,900.128296 541.299927,901.476440 
	C541.672058,901.803345 542.044189,902.130188 542.416260,902.457092 
	C550.359497,889.717529 563.104980,892.901794 574.922119,890.935364 
	C571.804871,895.022766 569.229004,898.400391 566.653137,901.778015 
	C567.016724,902.349426 567.380310,902.920837 567.743896,903.492249 
	C578.317993,899.433411 588.892090,895.374634 599.466187,891.315796 
	C599.857422,891.766541 600.248596,892.217224 600.639832,892.667908 
	C599.045532,899.865723 597.451233,907.063538 595.595581,915.441345 
	C599.772949,908.286560 602.992188,902.114380 606.836731,896.359985 
	C611.334595,889.627747 619.169067,885.505737 624.696777,886.811584 
	C622.219238,889.938599 619.935242,892.821350 617.876709,895.825562 
	C617.876709,895.825562 617.814636,895.905823 617.814636,895.905823 
	C617.814636,895.905823 617.686646,895.635010 618.388000,896.038574 
	C622.077759,894.017212 623.342163,895.704773 623.171814,899.081299 
	C624.876892,897.050598 626.238220,893.925781 628.419373,893.171509 
	C632.007141,891.930725 633.183594,889.753479 634.210083,886.572144 
	C634.864563,884.543762 636.221741,882.312134 637.928223,881.134766 
	C642.866516,877.727844 648.733398,875.469666 653.133118,871.529297 
	C658.633911,866.602661 663.135437,860.529968 667.821472,854.751831 
	C668.650269,853.729858 668.943481,851.236816 668.267639,850.314209 
	C667.547363,849.330994 665.315979,848.925598 663.865417,849.129639 
	C661.656433,849.440186 659.589294,850.641602 657.393799,851.193970 
	C654.220032,851.992554 650.985413,852.549255 647.776733,853.209106 
	C647.819824,849.688232 647.833862,846.166565 647.934875,842.647400 
	C647.951416,842.070496 648.351013,841.504517 648.532837,841.038147 
	C650.299072,840.943848 651.793152,840.735779 653.265442,840.839172 
	C654.008423,840.891296 654.678223,841.614258 655.437927,841.853149 
	C672.387695,847.184082 686.577087,856.819702 698.982605,869.381165 
	C702.126404,872.564575 705.850464,875.174927 709.307983,878.048584 
	C709.673157,877.672485 710.038330,877.296326 710.403503,876.920166 
	C709.596252,875.776001 708.884888,874.547607 707.965820,873.501709 
	C703.010071,867.861877 699.074951,861.956055 697.505920,854.200256 
	C696.170044,847.596558 693.400024,841.031494 687.611145,837.166199 
	C685.080933,837.898132 682.540344,838.617920 680.341064,838.039612 
	C662.547729,833.360962 644.966736,828.441406 626.442932,826.363892 
	C610.495117,824.575195 594.951233,818.945374 579.316650,814.690857 
	C569.626892,812.054016 560.101257,808.813965 549.545044,805.548645 
	C550.972412,810.855774 554.408020,811.874451 557.692688,812.970215 
	C562.806091,814.676025 568.045410,816.037598 573.073975,817.957458 
	C584.238647,822.220032 595.290833,826.776123 606.420776,831.131165 
	C610.030273,832.543640 613.738770,833.703003 618.049988,835.203674 
	C611.450134,843.531006 605.800476,851.616882 599.152405,858.775513 
	C592.619934,865.809814 585.273865,872.142883 577.883911,878.302673 
	C574.429443,881.182190 570.074463,883.119019 564.416992,881.513977 
	C574.923950,866.254700 584.830505,851.204529 590.601257,833.688965 
	C586.569641,835.174500 583.172119,837.137390 580.202148,839.613037 
	C570.736511,847.503357 561.481201,855.645325 552.045959,863.572632 
	C544.315735,870.067505 534.809387,872.053162 523.822021,874.478760 
	C539.325745,857.955994 550.184448,839.912842 562.065430,822.539246 
	C561.041382,822.167725 560.519043,822.154053 560.175598,822.395203 
	C548.855347,830.342651 537.400208,838.109253 526.290710,846.342163 
	C515.778870,854.132263 505.121582,860.283386 491.411438,854.304138 
	C494.456970,852.556519 497.549744,850.764893 500.658203,849.000977 
	C512.687073,842.175171 523.696472,833.987305 533.277222,824.004089 
	C535.483032,821.705627 536.928101,818.677124 538.723206,815.984558 
	C538.311401,815.593140 537.899536,815.201782 537.487671,814.810425 
	C535.567505,815.155090 533.588013,815.306580 531.736572,815.875183 
	C517.192871,820.341614 502.584381,824.624084 488.179016,829.503967 
	C478.905060,832.645752 470.788605,829.631348 461.812164,826.653687 
	C473.640381,821.534058 484.682922,816.538330 495.893616,811.953796 
	C511.979340,805.375671 528.127930,798.938354 544.393188,792.822754 
	C547.717102,791.572998 551.935303,791.007935 555.288330,791.876221 
	C562.639526,793.779968 569.700256,796.804871 576.880188,799.370361 
	C588.407410,803.489136 599.828186,807.947998 611.500183,811.604675 
	C619.282227,814.042664 627.427490,815.315796 635.401611,817.147461 
	C647.516846,819.930359 659.391663,819.907837 670.902527,814.466431 
	C673.704407,813.141907 676.665894,812.144104 679.585571,811.082825 
	C682.517151,810.017212 683.775940,811.389160 684.395691,814.217773 
	C684.895020,816.496887 685.929382,818.658875 686.726379,820.872864 
	C688.676453,819.100403 691.185181,817.650391 692.439514,815.476501 
	C694.127686,812.550659 694.800781,809.048950 696.003967,805.829590 
	C696.658752,804.077637 697.508484,802.398682 698.674011,799.779663 
	C702.573547,805.075989 703.212585,810.326294 703.160339,815.453064 
	C703.143921,817.066895 700.314514,818.652039 698.159363,820.885986 
	C698.872620,824.990723 699.586304,830.077148 700.730530,835.064819 
	C701.058899,836.496338 702.378174,838.319397 703.675720,838.803650 
	C709.568542,841.002808 711.343994,846.031738 712.880981,851.265442 
	C717.439331,866.788208 722.289246,882.238708 726.314453,897.900085 
	C728.948730,908.149475 730.347107,918.716370 732.312195,929.138672 
	C732.361084,929.397949 732.565308,929.627869 732.819458,930.097595 
	C733.751221,929.084229 734.607117,928.153320 735.625488,927.045776 
	C736.152893,931.092102 736.474854,934.633545 737.111267,938.117615 
	C737.655518,941.097473 738.666992,943.990356 739.255371,946.964539 
	C739.507141,948.237366 739.191406,949.618469 739.167419,950.950989 
	C739.143494,952.274902 739.162109,953.599548 739.162109,954.923950 
	C742.643372,948.156006 745.043152,941.736694 740.354065,934.434265 
	C738.691895,931.845520 738.632507,927.066040 739.856873,924.126038 
	C740.985779,921.415283 742.205566,919.456787 741.232727,916.397522 
	C740.888550,915.315308 742.106140,913.209900 743.215515,912.391418 
	C743.870117,911.908508 745.886719,912.768921 746.975220,913.497009 
	C748.540344,914.544006 749.817932,916.020874 751.404541,917.486206 
	C749.820435,901.024658 751.682617,885.937195 761.300293,872.363525 
	C760.351807,872.135986 759.100281,871.835693 756.875244,871.301880 
	C759.068970,864.022766 760.945557,857.082581 763.284119,850.301697 
	C764.700134,846.195862 767.999390,844.309875 772.455261,843.907532 
	C776.203308,843.569153 779.921692,842.594604 783.561707,841.574829 
	C784.530640,841.303406 785.163086,839.830750 785.949951,838.909607 
	C785.056702,838.283997 784.245056,837.436279 783.255554,837.072449 
	C779.549255,835.709839 778.546509,832.318726 781.251282,829.187866 
	C782.646545,827.572754 784.477844,826.334351 786.816101,824.318970 
	C781.776123,821.700439 777.588867,819.524902 772.429688,816.844421 
	C773.718750,812.148499 774.902100,806.898376 776.676392,801.856262 
	C777.346558,799.951782 779.382507,798.527832 780.795898,796.884888 
	C782.182129,798.782166 784.161133,800.489502 784.841492,802.612915 
	C786.753174,808.578918 788.463074,814.653748 789.619568,820.804688 
	C790.681274,826.451233 791.501404,832.265259 791.378052,837.982849 
	C791.209167,845.810181 787.511230,852.298950 781.291321,857.113770 
	C785.637207,862.843750 779.701172,870.582031 784.605591,875.296936 
	C791.122803,868.149353 797.415649,861.247742 803.614014,854.449829 
	C815.377930,864.881531 825.730469,875.616943 839.651001,884.043701 
	C838.489563,881.169495 837.892456,879.691956 837.293213,878.208984 
	C847.687439,880.361206 847.226196,892.858093 856.008728,897.452209 
	C855.615234,895.342407 855.407043,894.226196 855.117432,892.673706 
	C857.533997,894.082214 859.419373,895.181091 861.304688,896.279968 
	C861.496704,896.010620 861.688782,895.741333 861.880798,895.471985 
	C860.632080,893.310974 859.383362,891.149963 857.659729,888.167114 
	C857.403442,888.405823 858.361633,887.018799 858.811279,887.167664 
	C867.871155,890.167969 876.565369,893.850830 881.786560,900.351318 
	C887.479004,900.351318 892.183044,900.351318 896.887146,900.351318 
	C896.890320,899.875244 896.893433,899.399109 896.896606,898.923035 
	C893.520142,896.486572 890.143616,894.050171 886.767151,891.613708 
	C886.944519,891.232666 887.121887,890.851562 887.299255,890.470459 
	C892.221558,891.639160 897.149231,892.786316 902.059998,894.001709 
	C902.725098,894.166382 903.612610,894.518738 903.877197,895.045349 
	C906.181641,899.630859 908.367493,904.275879 910.588562,908.903259 
	C911.009460,908.686707 911.430359,908.470093 911.851257,908.253540 
	C911.936890,906.627197 912.022461,905.000854 912.104187,903.448975 
	C913.832336,903.032166 915.326721,902.671753 917.425049,902.165710 
	C915.619385,899.018311 914.126709,896.416504 911.969177,892.655762 
	C915.084106,893.278442 916.955200,894.126221 918.703369,893.921814 
	C927.373352,892.908264 931.636963,897.354309 933.761658,905.130859 
	C934.076599,906.283936 935.967285,907.006531 936.772583,908.245850 
	C936.987793,908.386536 937.203064,908.527161 937.418274,908.667847 
	C937.280823,908.442078 937.143372,908.216309 937.010376,907.198486 
	C936.583008,905.624329 936.293518,903.996277 935.703735,902.485474 
	C933.523560,896.900940 935.514771,893.203979 941.467224,893.115051 
	C943.765076,893.080688 946.252930,894.683594 948.367615,896.000671 
	C951.778748,898.125183 954.952454,900.630798 958.226440,902.975464 
	C958.409241,902.763367 958.592041,902.551331 958.774902,902.339233 
	C955.877502,897.366821 952.980164,892.394348 949.199524,885.906067 
	C959.844543,887.036316 968.891907,888.241577 977.979004,888.896423 
	C988.064392,889.623291 992.447083,899.189636 1001.080811,903.395691 
	C1000.855164,901.296143 1000.693604,899.792175 1000.460449,897.622498 
	C1003.033264,898.677429 1005.361572,899.632141 1007.689941,900.586792 
	C1007.911011,900.240906 1008.132141,899.895020 1008.353210,899.549133 
	C1005.545105,897.678833 1002.736938,895.808594 999.946777,894.010315 
	C999.946777,894.010315 1000.020020,894.022888 1000.116333,893.318909 
	C995.281799,887.684387 990.185242,882.248840 985.704895,876.345459 
	C982.720459,872.413147 983.688599,869.902954 988.379639,868.307617 
	C991.561279,867.225586 995.049072,867.082581 998.342834,866.283875 
	C1007.108643,864.158081 1015.890259,862.070496 1024.569580,859.626709 
	C1028.456543,858.532288 1032.113770,856.622009 1035.875244,855.081909 
	C1035.722534,854.679565 1035.569702,854.277283 1035.416870,853.874939 
	C1032.373169,854.240845 1029.329468,854.606812 1026.304321,854.970520 
	C1025.966919,853.513000 1025.697388,852.349121 1025.334961,850.783691 
	C1019.197083,853.441467 1013.703857,853.974304 1009.684814,848.194092 
	C1006.611572,848.457520 1003.552673,848.334045 1000.919373,847.211853 
	C998.176270,846.042847 995.843689,843.910339 992.680420,841.755371 
	C998.785828,841.245117 1004.520020,841.485779 1009.873596,840.173706 
	C1022.309143,837.125732 1034.684814,833.704590 1046.843384,829.701538 
	C1054.850952,827.065247 1062.071899,826.595276 1069.310181,831.566895 
	C1072.045654,833.445801 1078.439209,830.469910 1079.580444,827.407471 
	C1074.104980,826.616089 1068.619629,825.823242 1062.620239,824.956116 
	C1061.545410,818.605591 1054.583252,820.109802 1050.360840,818.479004 
	C1043.183960,815.707214 1034.751099,816.342468 1027.339355,813.991028 
	C1010.784180,808.738525 994.341064,803.007202 978.219971,796.552673 
	C965.803284,791.581238 953.946899,785.210266 941.250061,779.180725 
	C946.342529,777.587585 950.160767,776.393066 953.979004,775.198547 
	C953.853699,774.695190 953.728394,774.191833 953.603088,773.688477 
	C951.220581,773.818054 948.838074,773.947632 946.455566,774.077209 
	C946.409668,773.811218 946.363708,773.545166 946.317749,773.279175 
	C951.351135,770.790710 956.384521,768.302307 961.417908,765.813904 
	C961.297302,765.381287 961.176636,764.948669 961.056030,764.515991 
	C959.865662,764.107239 958.675293,763.698425 957.108765,763.160461 
	C957.392517,764.501587 957.546204,765.228210 957.570923,765.345093 
	C953.605530,766.454773 949.634094,767.304810 945.854492,768.681458 
	C939.200745,771.104919 933.242371,776.976440 924.433350,771.066284 
	C926.271667,774.054016 927.257751,775.656616 928.241028,777.254639 
	C925.063843,778.363037 921.998718,779.250122 919.079163,780.482300 
	C906.041626,785.984436 893.191406,791.962524 879.998230,797.055359 
	C863.317017,803.494446 845.565857,805.045410 827.961609,806.961121 
	C823.978699,807.394531 819.600464,807.955139 815.947754,806.774902 
	C810.559082,805.033752 805.665710,801.768677 800.546753,799.181580 
	C793.730469,795.736816 788.737061,790.957275 787.744141,782.862305 
	C787.490967,780.798462 786.329346,778.846069 785.384399,776.302063 
	C783.985962,778.567078 783.080261,780.033997 782.174622,781.500916 
	C781.644836,781.262451 781.114990,781.023926 780.585205,780.785461 
	C781.709595,777.388306 782.833923,773.991089 784.084717,770.211853 
	C775.444763,769.802795 775.057678,777.653748 771.074219,782.119141 
	C770.426270,780.770508 769.837524,779.545166 768.431030,776.617859 
	C764.579163,783.528931 761.144043,789.286926 758.106873,795.247742 
	C754.574768,802.179871 751.578430,809.387146 747.985229,816.285217 
	C745.880127,820.326599 740.339722,822.626282 735.548462,820.707825 
	C733.128540,819.738831 731.229614,816.223816 730.137756,813.449646 
	C728.042725,808.127075 726.978088,802.401428 724.921570,797.060242 
	C723.720947,793.942200 721.980408,790.453552 719.414429,788.661072 
	C717.922485,787.618774 714.317444,789.601379 710.732788,790.440735 
	C710.984375,786.582336 710.475525,782.531799 711.688721,779.087891 
	C712.920166,775.592102 715.851196,772.694946 718.037903,769.535583 
	C717.738892,769.322510 717.439880,769.109436 717.140869,768.896362 
	C712.796631,772.193420 708.452454,775.490479 703.417542,779.311768 
	C703.417542,776.725159 703.417542,775.471069 703.417542,774.004944 
	C700.414368,778.433105 698.069275,782.910889 694.781128,786.532349 
	C687.353577,794.712585 678.076355,800.432312 667.732178,804.185364 
	C657.473877,807.907227 647.013733,811.016724 635.848755,809.340576 
	C618.469666,806.731445 602.308350,800.198914 586.213501,793.579407 
	C581.400391,791.599915 576.928894,788.711731 572.506104,785.915283 
	C571.381958,785.204529 571.043579,783.250977 569.681641,780.558899 
	C567.683594,780.411133 564.036255,780.141541 559.192932,779.783447 
	C563.746765,777.083862 567.298401,774.978333 570.850037,772.872803 
	C570.627502,772.467224 570.404907,772.061646 570.182373,771.656067 
	C566.346558,772.912659 562.460205,774.035645 558.687866,775.460327 
	C554.156677,777.171753 550.036011,777.292725 545.429688,775.021851 
	C540.208740,772.447998 534.462158,770.940125 528.944153,768.968750 
	C528.807800,769.278503 528.671387,769.588257 528.535034,769.898010 
	C531.092041,771.953735 533.649048,774.009460 536.206055,776.065186 
	C536.095276,776.323730 535.984497,776.582214 535.873718,776.840759 
	C533.287231,776.266418 530.700806,775.692017 528.361511,775.172546 
	C530.431213,777.341980 532.477844,779.487183 534.861816,781.985962 
	C532.977295,783.374084 531.814148,784.526550 530.421082,785.211182 
	C516.768677,791.920898 503.219391,798.868469 489.344635,805.087585 
	C481.084717,808.789917 472.066132,810.800232 463.808533,814.506714 
	C455.269348,818.339600 445.621704,815.536682 437.282837,819.818237 
	C436.591644,820.173035 435.203430,819.087891 434.111206,818.766296 
	C432.945953,818.423218 431.747650,818.192566 430.507080,817.899414 
	C430.835205,819.737610 431.072571,821.067444 431.257141,822.101440 
	C426.595825,823.818054 422.396729,825.364441 417.230591,827.266968 
	C420.606171,827.959839 422.722626,828.394226 424.839081,828.828674 
	C424.808838,829.110046 424.778595,829.391418 424.748352,829.672791 
	C420.028046,830.946655 415.307770,832.220520 409.219757,833.863525 
	C411.973602,834.849365 413.504364,835.953552 414.896423,835.799988 
	C421.097687,835.116211 427.257111,834.057617 433.436218,833.166016 
	C436.346832,832.746033 439.528534,831.465698 442.133881,832.195068 
	C449.267609,834.192139 456.119476,837.171997 463.161621,839.527466 
	C469.330994,841.591064 475.042572,847.197571 482.313477,842.127991 
	C483.289764,841.447266 485.149963,842.034302 486.576569,842.034302 
	C485.352844,848.163635 481.318298,850.312744 475.807770,849.932190 
	C471.111908,849.607849 466.461090,848.458679 461.768921,848.296936 
	C455.595673,848.084167 449.401459,848.481018 442.756866,848.625732 
	C443.660004,851.228577 444.121918,852.559875 444.576721,853.870667 
	C451.922089,852.069092 453.109528,852.186584 456.102570,855.335510 
	C451.080200,857.153137 446.270538,858.893738 441.231201,860.717529 
	C441.342743,862.453674 441.443085,864.015930 441.558044,865.805298 
	C448.327606,866.203003 454.401031,866.132568 460.136627,862.568481 
	C461.845215,861.506714 464.634674,861.738159 466.846344,862.021423 
	C472.088898,862.692810 477.289398,863.710144 482.493561,864.660645 
	C492.521667,866.492065 502.540527,868.373962 513.010925,870.318115 
	C503.696289,875.931152 494.176880,878.279114 483.925171,878.057312 
	C481.581268,878.006531 479.218475,878.828735 476.864380,879.249207 
	C476.825195,879.954651 476.786011,880.660156 476.746796,881.365601 
	C479.571472,882.221252 482.440643,882.956848 485.203491,883.979492 
	C486.753326,884.553162 489.016541,885.299866 489.420929,886.490601 
	C490.880737,890.789124 493.090820,890.376160 496.106903,888.374573 
	C497.113678,887.706421 498.329254,887.352783 500.089233,886.571228 
	C499.321716,888.478455 498.865723,889.611572 498.134399,891.428833 
	C499.927399,890.789429 501.438721,890.580261 502.547638,889.799561 
	C508.185028,885.830261 514.382629,884.424316 521.201233,884.985779 
	C533.295898,885.981750 544.535156,883.840759 553.981506,875.532471 
	C554.445190,875.124634 555.157410,874.999573 556.266113,875.219116 
M1010.115784,893.734802 
	C1009.510864,892.429504 1009.210022,890.812927 1008.247925,889.873230 
	C1004.226929,885.945984 1000.077576,882.141235 995.833923,878.454224 
	C993.367920,876.311707 990.634033,874.477478 988.020691,872.504517 
	C987.757324,872.856934 987.494019,873.209412 987.230652,873.561890 
	C991.012024,877.641968 994.575073,881.957642 998.643494,885.728088 
	C1001.928284,888.772278 1005.822571,891.158752 1010.115784,893.734802 
z"/>
<path fill="#FF1C1C" opacity="1.000000" stroke="none" 
	d="
M937.128967,907.928223 
	C935.967285,907.006531 934.076599,906.283936 933.761658,905.130859 
	C931.636963,897.354309 927.373352,892.908264 918.703369,893.921814 
	C916.955200,894.126221 915.084106,893.278442 911.969177,892.655762 
	C914.126709,896.416504 915.619385,899.018311 917.425049,902.165710 
	C915.326721,902.671753 913.832336,903.032166 912.104187,903.448975 
	C912.022461,905.000854 911.936890,906.627197 911.851257,908.253540 
	C911.430359,908.470093 911.009460,908.686707 910.588562,908.903259 
	C908.367493,904.275879 906.181641,899.630859 903.877197,895.045349 
	C903.612610,894.518738 902.725098,894.166382 902.059998,894.001709 
	C897.149231,892.786316 892.221558,891.639160 887.299255,890.470459 
	C887.121887,890.851562 886.944519,891.232666 886.767151,891.613708 
	C890.143616,894.050171 893.520142,896.486572 896.896606,898.923035 
	C896.893433,899.399109 896.890320,899.875244 896.887146,900.351318 
	C892.183044,900.351318 887.479004,900.351318 881.786560,900.351318 
	C876.565369,893.850830 867.871155,890.167969 858.811279,887.167664 
	C858.361633,887.018799 857.403442,888.405823 857.659729,888.167114 
	C859.383362,891.149963 860.632080,893.310974 861.880798,895.471985 
	C861.688782,895.741333 861.496704,896.010620 861.304688,896.279968 
	C859.419373,895.181091 857.533997,894.082214 855.117432,892.673706 
	C855.407043,894.226196 855.615234,895.342407 856.008728,897.452209 
	C847.226196,892.858093 847.687439,880.361206 837.293213,878.208984 
	C837.892456,879.691956 838.489563,881.169495 839.651001,884.043701 
	C825.730469,875.616943 815.377930,864.881531 803.614014,854.449829 
	C797.415649,861.247742 791.122803,868.149353 784.605591,875.296936 
	C779.701172,870.582031 785.637207,862.843750 781.291321,857.113770 
	C787.511230,852.298950 791.209167,845.810181 791.378052,837.982849 
	C791.501404,832.265259 790.681274,826.451233 789.619568,820.804688 
	C788.463074,814.653748 786.753174,808.578918 784.841492,802.612915 
	C784.161133,800.489502 782.182129,798.782166 780.795898,796.884888 
	C779.382507,798.527832 777.346558,799.951782 776.676392,801.856262 
	C774.902100,806.898376 773.718750,812.148499 772.429688,816.844421 
	C777.588867,819.524902 781.776123,821.700439 786.816101,824.318970 
	C784.477844,826.334351 782.646545,827.572754 781.251282,829.187866 
	C778.546509,832.318726 779.549255,835.709839 783.255554,837.072449 
	C784.245056,837.436279 785.056702,838.283997 785.949951,838.909607 
	C785.163086,839.830750 784.530640,841.303406 783.561707,841.574829 
	C779.921692,842.594604 776.203308,843.569153 772.455261,843.907532 
	C767.999390,844.309875 764.700134,846.195862 763.284119,850.301697 
	C760.945557,857.082581 759.068970,864.022766 756.875244,871.301880 
	C759.100281,871.835693 760.351807,872.135986 761.300293,872.363525 
	C751.682617,885.937195 749.820435,901.024658 751.404541,917.486206 
	C749.817932,916.020874 748.540344,914.544006 746.975220,913.497009 
	C745.886719,912.768921 743.870117,911.908508 743.215515,912.391418 
	C742.106140,913.209900 740.888550,915.315308 741.232727,916.397522 
	C742.205566,919.456787 740.985779,921.415283 739.856873,924.126038 
	C738.632507,927.066040 738.691895,931.845520 740.354065,934.434265 
	C745.043152,941.736694 742.643372,948.156006 739.162109,954.923950 
	C739.162109,953.599548 739.143494,952.274902 739.167419,950.950989 
	C739.191406,949.618469 739.507141,948.237366 739.255371,946.964539 
	C738.666992,943.990356 737.655518,941.097473 737.111267,938.117615 
	C736.474854,934.633545 736.152893,931.092102 735.625488,927.045776 
	C734.607117,928.153320 733.751221,929.084229 732.819458,930.097595 
	C732.565308,929.627869 732.361084,929.397949 732.312195,929.138672 
	C730.347107,918.716370 728.948730,908.149475 726.314453,897.900085 
	C722.289246,882.238708 717.439331,866.788208 712.880981,851.265442 
	C711.343994,846.031738 709.568542,841.002808 703.675720,838.803650 
	C702.378174,838.319397 701.058899,836.496338 700.730530,835.064819 
	C699.586304,830.077148 698.872620,824.990723 698.159363,820.885986 
	C700.314514,818.652039 703.143921,817.066895 703.160339,815.453064 
	C703.212585,810.326294 702.573547,805.075989 698.674011,799.779663 
	C697.508484,802.398682 696.658752,804.077637 696.003967,805.829590 
	C694.800781,809.048950 694.127686,812.550659 692.439514,815.476501 
	C691.185181,817.650391 688.676453,819.100403 686.726379,820.872803 
	C685.929382,818.658875 684.895020,816.496887 684.395691,814.217773 
	C683.775940,811.389160 682.517151,810.017212 679.585571,811.082825 
	C676.665894,812.144104 673.704407,813.141907 670.902527,814.466431 
	C659.391663,819.907837 647.516846,819.930359 635.401611,817.147461 
	C627.427490,815.315796 619.282227,814.042664 611.500183,811.604675 
	C599.828186,807.947998 588.407410,803.489136 576.880188,799.370361 
	C569.700256,796.804871 562.639526,793.779968 555.288330,791.876221 
	C551.935303,791.007935 547.717102,791.572998 544.393188,792.822754 
	C528.127930,798.938354 511.979340,805.375671 495.893616,811.953796 
	C484.682922,816.538330 473.640381,821.534058 461.812164,826.653687 
	C470.788605,829.631348 478.905060,832.645752 488.179016,829.503967 
	C502.584381,824.624084 517.192871,820.341614 531.736572,815.875183 
	C533.588013,815.306580 535.567505,815.155090 537.487671,814.810425 
	C537.899536,815.201782 538.311401,815.593140 538.723206,815.984558 
	C536.928101,818.677124 535.483032,821.705627 533.277222,824.004089 
	C523.696472,833.987305 512.687073,842.175171 500.658203,849.000977 
	C497.549744,850.764893 494.456970,852.556519 491.411438,854.304138 
	C505.121582,860.283386 515.778870,854.132263 526.290710,846.342163 
	C537.400208,838.109253 548.855347,830.342651 560.175598,822.395203 
	C560.519043,822.154053 561.041382,822.167725 562.065430,822.539246 
	C550.184448,839.912842 539.325745,857.955994 523.822021,874.478760 
	C534.809387,872.053162 544.315735,870.067505 552.045959,863.572632 
	C561.481201,855.645325 570.736511,847.503357 580.202148,839.613037 
	C583.172119,837.137390 586.569641,835.174500 590.601257,833.688965 
	C584.830505,851.204529 574.923950,866.254700 564.416992,881.513977 
	C570.074463,883.119019 574.429443,881.182190 577.883911,878.302673 
	C585.273865,872.142883 592.619934,865.809814 599.152405,858.775513 
	C605.800476,851.616882 611.450134,843.531006 618.049988,835.203674 
	C613.738770,833.703003 610.030273,832.543640 606.420776,831.131165 
	C595.290833,826.776123 584.238647,822.220032 573.073975,817.957458 
	C568.045410,816.037598 562.806091,814.676025 557.692688,812.970215 
	C554.408020,811.874451 550.972412,810.855774 549.545044,805.548645 
	C560.101257,808.813965 569.626892,812.054016 579.316650,814.690857 
	C594.951233,818.945374 610.495117,824.575195 626.442932,826.363892 
	C644.966736,828.441406 662.547729,833.360962 680.341064,838.039612 
	C682.540344,838.617920 685.080933,837.898132 687.611145,837.166199 
	C693.400024,841.031494 696.170044,847.596558 697.505920,854.200256 
	C699.074951,861.956055 703.010071,867.861877 707.965820,873.501709 
	C708.884888,874.547607 709.596252,875.776001 710.403503,876.920166 
	C710.038330,877.296326 709.673157,877.672485 709.307983,878.048584 
	C705.850464,875.174927 702.126404,872.564575 698.982605,869.381165 
	C686.577087,856.819702 672.387695,847.184082 655.437927,841.853149 
	C654.678223,841.614258 654.008423,840.891296 653.265442,840.839172 
	C651.793152,840.735779 650.299072,840.943848 648.532837,841.038147 
	C648.351013,841.504517 647.951416,842.070496 647.934875,842.647400 
	C647.833862,846.166565 647.819824,849.688232 647.776733,853.209106 
	C650.985413,852.549255 654.220032,851.992554 657.393799,851.193970 
	C659.589294,850.641602 661.656433,849.440186 663.865417,849.129639 
	C665.315979,848.925598 667.547363,849.330994 668.267639,850.314209 
	C668.943481,851.236816 668.650269,853.729858 667.821472,854.751831 
	C663.135437,860.529968 658.633911,866.602661 653.133118,871.529297 
	C648.733398,875.469666 642.866516,877.727844 637.928223,881.134766 
	C636.221741,882.312134 634.864563,884.543762 634.210083,886.572144 
	C633.183594,889.753479 632.007141,891.930725 628.419373,893.171509 
	C626.238220,893.925781 624.876892,897.050598 623.171814,899.081299 
	C623.342163,895.704773 622.077759,894.017212 618.057983,895.868530 
	C617.727966,895.698425 617.651306,895.704102 617.651306,895.704102 
	C619.935242,892.821350 622.219238,889.938599 624.696777,886.811584 
	C619.169067,885.505737 611.334595,889.627747 606.836731,896.359985 
	C602.992188,902.114380 599.772949,908.286560 595.595581,915.441345 
	C597.451233,907.063538 599.045532,899.865723 600.639832,892.667908 
	C600.248596,892.217224 599.857422,891.766541 599.466187,891.315796 
	C588.892090,895.374634 578.317993,899.433411 567.743896,903.492249 
	C567.380310,902.920837 567.016724,902.349426 566.653137,901.778015 
	C569.229004,898.400391 571.804871,895.022766 574.922119,890.935364 
	C563.104980,892.901794 550.359497,889.717529 542.416260,902.457092 
	C542.044189,902.130188 541.672058,901.803345 541.299927,901.476440 
	C541.567993,900.128296 541.734863,898.749451 542.131348,897.440186 
	C542.559814,896.025513 543.202820,894.675842 543.752197,893.297852 
	C541.773621,892.881958 539.473450,891.626709 537.887024,892.234436 
	C535.062866,893.316467 532.666687,895.519897 530.098999,897.265137 
	C527.458496,899.059753 524.826904,900.867371 522.191467,902.669312 
	C521.853943,902.232788 521.516357,901.796265 521.178772,901.359741 
	C523.032410,899.865662 524.974609,898.467224 526.718506,896.854431 
	C529.173157,894.584229 532.244690,892.328247 527.246338,888.250916 
	C539.459656,888.008545 549.823425,886.346069 556.838501,875.726318 
	C557.481934,874.956970 557.607056,874.571594 557.732239,874.186157 
	C557.072815,874.371704 556.413330,874.557251 555.753906,874.742859 
	C555.157410,874.999573 554.445190,875.124634 553.981506,875.532471 
	C544.535156,883.840759 533.295898,885.981750 521.201233,884.985779 
	C514.382629,884.424316 508.185028,885.830261 502.547638,889.799561 
	C501.438721,890.580261 499.927399,890.789429 498.134399,891.428833 
	C498.865723,889.611572 499.321716,888.478455 500.089233,886.571228 
	C498.329254,887.352783 497.113678,887.706421 496.106903,888.374573 
	C493.090820,890.376160 490.880737,890.789124 489.420929,886.490601 
	C489.016541,885.299866 486.753326,884.553162 485.203491,883.979492 
	C482.440643,882.956848 479.571472,882.221252 476.746796,881.365601 
	C476.786011,880.660156 476.825195,879.954651 476.864380,879.249207 
	C479.218475,878.828735 481.581268,878.006531 483.925171,878.057312 
	C494.176880,878.279114 503.696289,875.931152 513.010925,870.318115 
	C502.540527,868.373962 492.521667,866.492065 482.493561,864.660645 
	C477.289398,863.710144 472.088898,862.692810 466.846344,862.021423 
	C464.634674,861.738159 461.845215,861.506714 460.136627,862.568481 
	C454.401031,866.132568 448.327606,866.203003 441.558044,865.805298 
	C441.443085,864.015930 441.342743,862.453674 441.231201,860.717529 
	C446.270538,858.893738 451.080200,857.153137 456.102570,855.335510 
	C453.109528,852.186584 451.922089,852.069092 444.576721,853.870667 
	C444.121918,852.559875 443.660004,851.228577 442.756866,848.625732 
	C449.401459,848.481018 455.595673,848.084167 461.768921,848.296936 
	C466.461090,848.458679 471.111908,849.607849 475.807770,849.932190 
	C481.318298,850.312744 485.352844,848.163635 486.576569,842.034302 
	C485.149963,842.034302 483.289764,841.447266 482.313477,842.127991 
	C475.042572,847.197571 469.330994,841.591064 463.161621,839.527466 
	C456.119476,837.171997 449.267609,834.192139 442.133881,832.195068 
	C439.528534,831.465698 436.346832,832.746033 433.436218,833.166016 
	C427.257111,834.057617 421.097687,835.116211 414.896423,835.799988 
	C413.504364,835.953552 411.973602,834.849365 409.219757,833.863525 
	C415.307770,832.220520 420.028046,830.946655 424.748352,829.672791 
	C424.778595,829.391418 424.808838,829.110046 424.839081,828.828674 
	C422.722626,828.394226 420.606171,827.959839 417.230591,827.266968 
	C422.396729,825.364441 426.595825,823.818054 431.257141,822.101440 
	C431.072571,821.067444 430.835205,819.737610 430.507080,817.899414 
	C431.747650,818.192566 432.945953,818.423218 434.111206,818.766296 
	C435.203430,819.087891 436.591644,820.173035 437.282837,819.818237 
	C445.621704,815.536682 455.269348,818.339600 463.808533,814.506714 
	C472.066132,810.800232 481.084717,808.789917 489.344635,805.087585 
	C503.219391,798.868469 516.768677,791.920898 530.421082,785.211182 
	C531.814148,784.526550 532.977295,783.374084 534.861816,781.985962 
	C532.477844,779.487183 530.431213,777.341980 528.361511,775.172546 
	C530.700806,775.692017 533.287231,776.266418 535.873718,776.840759 
	C535.984497,776.582214 536.095276,776.323730 536.206055,776.065186 
	C533.649048,774.009460 531.092041,771.953735 528.535034,769.898010 
	C528.671387,769.588257 528.807800,769.278503 528.944153,768.968750 
	C534.462158,770.940125 540.208740,772.447998 545.429688,775.021851 
	C550.036011,777.292725 554.156677,777.171753 558.687866,775.460327 
	C562.460205,774.035645 566.346558,772.912659 570.182373,771.656067 
	C570.404907,772.061646 570.627502,772.467224 570.850037,772.872803 
	C567.298401,774.978333 563.746765,777.083862 559.192932,779.783447 
	C564.036255,780.141541 567.683594,780.411133 569.681641,780.558899 
	C571.043579,783.250977 571.381958,785.204529 572.506104,785.915283 
	C576.928894,788.711731 581.400391,791.599915 586.213501,793.579407 
	C602.308350,800.198914 618.469666,806.731445 635.848755,809.340576 
	C647.013733,811.016724 657.473877,807.907227 667.732178,804.185364 
	C678.076355,800.432312 687.353577,794.712585 694.781128,786.532349 
	C698.069275,782.910889 700.414368,778.433105 703.417542,774.004944 
	C703.417542,775.471069 703.417542,776.725159 703.417542,779.311768 
	C708.452454,775.490479 712.796631,772.193420 717.140869,768.896362 
	C717.439880,769.109436 717.738892,769.322510 718.037903,769.535583 
	C715.851196,772.694946 712.920166,775.592102 711.688721,779.087891 
	C710.475525,782.531799 710.984375,786.582336 710.732788,790.440735 
	C714.317444,789.601379 717.922485,787.618774 719.414429,788.661072 
	C721.980408,790.453552 723.720947,793.942200 724.921570,797.060242 
	C726.978088,802.401428 728.042725,808.127075 730.137756,813.449646 
	C731.229614,816.223816 733.128540,819.738831 735.548462,820.707825 
	C740.339722,822.626282 745.880127,820.326599 747.985229,816.285217 
	C751.578430,809.387146 754.574768,802.179871 758.106873,795.247742 
	C761.144043,789.286926 764.579163,783.528931 768.431030,776.617859 
	C769.837524,779.545166 770.426270,780.770508 771.074219,782.119141 
	C775.057678,777.653748 775.444763,769.802795 784.084717,770.211853 
	C782.833923,773.991089 781.709595,777.388306 780.585205,780.785461 
	C781.114990,781.023926 781.644836,781.262451 782.174622,781.500916 
	C783.080261,780.033997 783.985962,778.567078 785.384399,776.302063 
	C786.329346,778.846069 787.490967,780.798462 787.744141,782.862305 
	C788.737061,790.957275 793.730469,795.736816 800.546753,799.181580 
	C805.665710,801.768677 810.559082,805.033752 815.947754,806.774902 
	C819.600464,807.955139 823.978699,807.394531 827.961609,806.961121 
	C845.565857,805.045410 863.317017,803.494446 879.998230,797.055359 
	C893.191406,791.962524 906.041626,785.984436 919.079163,780.482300 
	C921.998718,779.250122 925.063843,778.363037 928.241028,777.254639 
	C927.257751,775.656616 926.271667,774.054016 924.433350,771.066284 
	C933.242371,776.976440 939.200745,771.104919 945.854492,768.681458 
	C949.634094,767.304810 953.605530,766.454773 957.570923,765.345093 
	C957.546204,765.228210 957.392517,764.501587 957.108765,763.160461 
	C958.675293,763.698425 959.865662,764.107239 961.056030,764.515991 
	C961.176636,764.948669 961.297302,765.381287 961.417908,765.813904 
	C956.384521,768.302307 951.351135,770.790710 946.317749,773.279175 
	C946.363708,773.545166 946.409668,773.811218 946.455566,774.077209 
	C948.838074,773.947632 951.220581,773.818054 953.603088,773.688477 
	C953.728394,774.191833 953.853699,774.695190 953.979004,775.198547 
	C950.160767,776.393066 946.342529,777.587585 941.250061,779.180725 
	C953.946899,785.210266 965.803284,791.581238 978.219971,796.552673 
	C994.341064,803.007202 1010.784180,808.738525 1027.339355,813.991028 
	C1034.751099,816.342468 1043.183960,815.707214 1050.360840,818.479004 
	C1054.583252,820.109802 1061.545410,818.605591 1062.620239,824.956116 
	C1068.619629,825.823242 1074.104980,826.616089 1079.580444,827.407471 
	C1078.439209,830.469910 1072.045654,833.445801 1069.310181,831.566895 
	C1062.071899,826.595276 1054.850952,827.065247 1046.843384,829.701538 
	C1034.684814,833.704590 1022.309143,837.125732 1009.873596,840.173706 
	C1004.520020,841.485779 998.785828,841.245117 992.680420,841.755371 
	C995.843689,843.910339 998.176270,846.042847 1000.919373,847.211853 
	C1003.552673,848.334045 1006.611572,848.457520 1009.684814,848.194092 
	C1013.703857,853.974304 1019.197083,853.441467 1025.334961,850.783691 
	C1025.697388,852.349121 1025.966919,853.513000 1026.304321,854.970520 
	C1029.329468,854.606812 1032.373169,854.240845 1035.416870,853.874939 
	C1035.569702,854.277283 1035.722534,854.679565 1035.875244,855.081909 
	C1032.113770,856.622009 1028.456543,858.532288 1024.569580,859.626709 
	C1015.890259,862.070496 1007.108643,864.158081 998.342834,866.283875 
	C995.049072,867.082581 991.561279,867.225586 988.379639,868.307617 
	C983.688599,869.902954 982.720459,872.413147 985.704895,876.345459 
	C990.185242,882.248840 995.281799,887.684387 999.734314,893.777588 
	C996.271667,895.860168 994.876770,893.700073 993.278442,891.669312 
	C991.896179,889.913086 990.260376,888.356445 988.736633,886.711609 
	C988.345947,887.120911 987.955261,887.530212 987.564636,887.939514 
	C989.427124,891.811890 992.206482,894.938660 996.469177,896.291382 
	C997.290771,896.552063 998.758911,894.775208 999.928833,893.938354 
	C1002.736938,895.808594 1005.545105,897.678833 1008.353210,899.549133 
	C1008.132141,899.895020 1007.911011,900.240906 1007.689941,900.586792 
	C1005.361572,899.632141 1003.033264,898.677429 1000.460449,897.622498 
	C1000.693604,899.792175 1000.855164,901.296143 1001.080811,903.395691 
	C992.447083,899.189636 988.064392,889.623291 977.979004,888.896423 
	C968.891907,888.241577 959.844543,887.036316 949.199524,885.906067 
	C952.980164,892.394348 955.877502,897.366821 958.774902,902.339233 
	C958.592041,902.551331 958.409241,902.763367 958.226440,902.975464 
	C954.952454,900.630798 951.778748,898.125183 948.367615,896.000671 
	C946.252930,894.683594 943.765076,893.080688 941.467224,893.115051 
	C935.514771,893.203979 933.523560,896.900940 935.703735,902.485474 
	C936.293518,903.996277 936.583008,905.624329 937.038391,907.577820 
	C937.066406,907.957153 937.128967,907.928223 937.128967,907.928223 
M500.290466,835.727112 
	C498.055786,836.153137 495.726868,836.327637 493.627075,837.113892 
	C492.614655,837.493164 492.033600,839.024231 491.257233,840.033752 
	C492.508575,840.287842 494.110962,841.154175 494.943146,840.677185 
	C497.131287,839.422729 498.984283,837.583740 501.489380,835.880371 
	C501.461639,835.690552 501.433929,835.500793 501.406189,835.311035 
	C501.282501,835.339111 501.056091,835.357178 501.052216,835.396912 
	C501.031036,835.613281 501.064697,835.834900 500.290466,835.727112 
M918.087708,864.206604 
	C917.811462,864.297668 917.535156,864.388733 917.258911,864.479797 
	C917.463501,864.692444 917.668091,864.905151 917.935242,865.811462 
	C920.811829,869.860962 923.305481,874.361938 928.644897,875.507996 
	C928.990540,875.137634 929.336243,874.767212 929.681885,874.396851 
	C925.952576,871.080872 922.223206,867.764954 918.087708,864.206604 
M961.996643,799.486084 
	C954.917236,796.190308 947.406860,793.565491 940.896179,789.384155 
	C935.789429,786.104553 931.490295,786.508606 926.603516,788.542480 
	C915.404602,793.203613 904.187988,797.823547 893.025330,802.570068 
	C871.747864,811.617065 849.788818,817.942810 826.564758,818.953064 
	C823.455505,819.088318 820.133972,818.099548 817.165527,816.964905 
	C810.135193,814.277588 803.258179,811.189514 795.442749,807.893860 
	C795.668945,812.935608 794.599304,817.446411 796.283142,820.372864 
	C799.244751,825.519775 797.465637,829.692871 796.296997,834.428223 
	C795.972290,835.743958 797.202026,838.001648 798.401001,839.037170 
	C803.238525,843.215149 808.429810,841.768433 813.849854,839.849487 
	C820.393372,837.532898 827.049072,834.947693 833.860657,834.075684 
	C863.295654,830.307495 891.501892,822.576416 918.405579,809.999573 
	C924.506714,807.147461 930.949341,805.025879 937.234741,802.567993 
	C937.430176,802.974243 937.625610,803.380554 937.821106,803.786804 
	C933.669434,808.853394 927.778931,811.377380 921.977661,814.064575 
	C919.739624,815.101257 916.352844,815.890747 915.686584,817.632996 
	C914.201538,821.516113 911.210754,822.223145 908.097351,823.036865 
	C886.235413,828.750916 864.295410,834.175964 842.500000,840.131165 
	C832.291931,842.920410 822.105957,846.104736 812.374878,850.211670 
	C806.163818,852.833069 806.640259,855.357300 813.049500,858.736328 
	C813.519714,857.045776 813.972290,855.418518 814.481384,853.588074 
	C817.863281,855.033936 820.812073,856.602783 823.947266,857.562683 
	C828.636719,858.998413 831.604919,857.076355 831.822571,852.238098 
	C831.954529,849.306152 833.066040,847.588379 835.698059,847.648804 
	C837.710754,847.695007 840.320618,848.353516 841.556702,849.732849 
	C843.730652,852.158752 844.845825,855.497803 846.791870,858.172546 
	C849.301270,861.621704 852.219971,864.770813 854.907166,868.093933 
	C856.390259,869.928040 858.187927,871.670166 859.091370,873.776489 
	C860.913757,878.025269 864.915161,880.795593 869.998169,880.484985 
	C866.605896,867.233643 862.647766,854.088806 862.599182,838.674194 
	C865.655396,841.107910 867.608826,842.338379 869.154785,843.957886 
	C873.178528,848.172913 876.758484,852.840820 880.994202,856.818237 
	C890.070557,865.341248 899.317688,873.696350 908.785461,881.779968 
	C911.521179,884.115723 915.158875,885.757507 919.801697,883.945862 
	C918.323547,881.826477 917.059265,880.131775 915.918091,878.357788 
	C909.450500,868.304138 902.689941,858.416870 896.741272,848.063721 
	C894.692566,844.498047 894.693665,839.754578 893.758301,835.549194 
	C894.333557,835.277161 894.908813,835.005127 895.484070,834.733093 
	C900.183289,838.323547 904.946594,841.833618 909.568909,845.520508 
	C920.372498,854.137573 931.064392,862.894897 941.891113,871.482483 
	C946.887573,875.445557 952.470459,876.659485 959.378113,873.995117 
	C947.244385,856.354919 931.694092,841.544189 923.080811,821.864075 
	C926.018127,822.992920 928.421936,824.627991 930.770203,826.339294 
	C941.114563,833.877319 951.116272,841.953003 961.905029,848.787354 
	C967.945618,852.613831 975.145447,854.853088 982.088135,856.914062 
	C985.757629,858.003357 990.162781,857.984497 994.722229,854.518555 
	C991.407654,852.525024 989.020020,850.852478 986.436890,849.575134 
	C972.852966,842.858154 961.087891,833.669983 950.478455,822.982605 
	C948.468994,820.958435 947.369812,818.030640 945.850708,815.519836 
	C946.232971,815.141968 946.615234,814.764099 946.997559,814.386169 
	C954.995178,817.060242 962.997681,819.719971 970.989380,822.411438 
	C985.260071,827.217529 999.734192,830.854126 1014.972412,830.132141 
	C1020.057129,829.891235 1024.956787,829.063293 1030.293701,825.370972 
	C1006.996643,816.572998 984.836182,808.204163 961.996643,799.486084 
M621.063110,851.626465 
	C619.596619,860.223389 618.130188,868.820312 616.629028,877.620789 
	C625.469055,875.912659 641.037659,851.834106 641.785217,838.976929 
	C635.922180,837.836121 629.978149,836.679565 623.687134,835.455505 
	C622.774048,840.988098 621.968140,845.870972 621.063110,851.626465 
M739.358948,843.870483 
	C738.550781,845.343628 736.985657,846.864441 737.074890,848.281006 
	C737.353699,852.709900 738.187439,857.111877 738.974609,861.494080 
	C739.141846,862.424988 740.021729,863.227905 741.033386,864.808716 
	C744.132812,858.562195 743.182495,852.821960 742.735596,847.212830 
	C742.643311,846.054199 741.099548,845.011108 739.358948,843.870483 
M880.936157,883.525635 
	C882.017334,885.315002 883.098511,887.104431 884.124207,888.802063 
	C889.921753,878.812988 881.389160,875.120483 875.708679,870.116882 
	C877.350464,874.357056 878.992310,878.597290 880.936157,883.525635 
M941.243774,884.370850 
	C938.570801,882.995239 935.897827,881.619690 932.465210,879.853149 
	C933.130676,886.676392 935.437195,889.206726 939.636230,889.087402 
	C942.785034,888.997925 944.145813,887.883728 941.243774,884.370850 
M597.444458,878.199341 
	C596.860352,879.239441 596.276184,880.279602 595.588318,881.504456 
	C602.555847,882.830994 603.526062,881.913879 603.922119,873.755920 
	C601.755310,875.219788 599.899292,876.473694 597.444458,878.199341 
M985.176331,838.666931 
	C987.456665,838.666931 989.736938,838.666931 992.017273,838.666931 
	C992.083862,837.908203 992.150391,837.149414 992.216980,836.390686 
	C988.527710,835.774353 984.838501,835.157959 981.149231,834.541565 
	C980.997192,835.115540 980.845154,835.689453 980.693115,836.263428 
	C981.931152,836.940552 983.169189,837.617737 985.176331,838.666931 
M875.490906,868.563110 
	C875.490906,868.563110 875.466064,868.648987 875.490906,868.563110 
z"/>
<path fill="#FF1C1C" opacity="1.000000" stroke="none" 
	d="
M1009.781128,893.785889 
	C1005.822571,891.158752 1001.928284,888.772278 998.643494,885.728088 
	C994.575073,881.957642 991.012024,877.641968 987.230652,873.561890 
	C987.494019,873.209412 987.757324,872.856934 988.020691,872.504517 
	C990.634033,874.477478 993.367920,876.311707 995.833923,878.454224 
	C1000.077576,882.141235 1004.226929,885.945984 1008.247925,889.873230 
	C1009.210022,890.812927 1009.510864,892.429504 1009.781128,893.785889 
z"/>
<path fill="#FF1C1C" opacity="1.000000" stroke="none" 
	d="
M915.170532,912.697876 
	C915.805237,911.278625 916.439941,909.859436 917.407166,907.696716 
	C918.747131,909.799988 920.154541,912.009155 921.561951,914.218262 
	C921.126953,914.833740 920.691956,915.449219 920.256958,916.064697 
	C918.401367,915.131409 916.545715,914.198120 914.938965,912.953247 
	C915.187866,912.641724 915.170532,912.697876 915.170532,912.697876 
z"/>
<path fill="#FF1C1C" opacity="1.000000" stroke="none" 
	d="
M617.707275,895.666748 
	C617.686646,895.635010 617.814636,895.905823 617.814636,895.905823 
	C617.814636,895.905823 617.876709,895.825562 617.764038,895.764832 
	C617.651306,895.704102 617.727966,895.698425 617.707275,895.666748 
z"/>
<path fill="#FF1C1C" opacity="1.000000" stroke="none" 
	d="
M937.036194,907.973877 
	C937.143372,908.216309 937.280823,908.442078 937.418274,908.667847 
	C937.203064,908.527161 936.987793,908.386536 936.950806,908.087036 
	C937.128967,907.928223 937.066406,907.957153 937.036194,907.973877 
z"/>
<path fill="#FF1C1C" opacity="1.000000" stroke="none" 
	d="
M915.196045,912.613525 
	C915.010437,912.761841 914.816589,912.938354 914.622681,913.114868 
	C914.662476,912.955444 914.702332,912.796143 914.956299,912.667358 
	C915.170532,912.697876 915.187866,912.641724 915.196045,912.613525 
z"/>
<path fill="#FFFBFB" opacity="1.000000" stroke="none" 
	d="
M962.336182,799.660767 
	C984.836182,808.204163 1006.996643,816.572998 1030.293701,825.370972 
	C1024.956787,829.063293 1020.057129,829.891235 1014.972412,830.132141 
	C999.734192,830.854126 985.260071,827.217529 970.989380,822.411438 
	C962.997681,819.719971 954.995178,817.060242 946.997559,814.386169 
	C946.615234,814.764099 946.232971,815.141968 945.850708,815.519836 
	C947.369812,818.030640 948.468994,820.958435 950.478455,822.982605 
	C961.087891,833.669983 972.852966,842.858154 986.436890,849.575134 
	C989.020020,850.852478 991.407654,852.525024 994.722229,854.518555 
	C990.162781,857.984497 985.757629,858.003357 982.088135,856.914062 
	C975.145447,854.853088 967.945618,852.613831 961.905029,848.787354 
	C951.116272,841.953003 941.114563,833.877319 930.770203,826.339294 
	C928.421936,824.627991 926.018127,822.992920 923.080811,821.864075 
	C931.694092,841.544189 947.244385,856.354919 959.378113,873.995117 
	C952.470459,876.659485 946.887573,875.445557 941.891113,871.482483 
	C931.064392,862.894897 920.372498,854.137573 909.568909,845.520508 
	C904.946594,841.833618 900.183289,838.323547 895.484070,834.733093 
	C894.908813,835.005127 894.333557,835.277161 893.758301,835.549194 
	C894.693665,839.754578 894.692566,844.498047 896.741272,848.063721 
	C902.689941,858.416870 909.450500,868.304138 915.918091,878.357788 
	C917.059265,880.131775 918.323547,881.826477 919.801697,883.945862 
	C915.158875,885.757507 911.521179,884.115723 908.785461,881.779968 
	C899.317688,873.696350 890.070557,865.341248 880.994202,856.818237 
	C876.758484,852.840820 873.178528,848.172913 869.154785,843.957886 
	C867.608826,842.338379 865.655396,841.107910 862.599182,838.674194 
	C862.647766,854.088806 866.605896,867.233643 869.998169,880.484985 
	C864.915161,880.795593 860.913757,878.025269 859.091370,873.776489 
	C858.187927,871.670166 856.390259,869.928040 854.907166,868.093933 
	C852.219971,864.770813 849.301270,861.621704 846.791870,858.172546 
	C844.845825,855.497803 843.730652,852.158752 841.556702,849.732849 
	C840.320618,848.353516 837.710754,847.695007 835.698059,847.648804 
	C833.066040,847.588379 831.954529,849.306152 831.822571,852.238098 
	C831.604919,857.076355 828.636719,858.998413 823.947266,857.562683 
	C820.812073,856.602783 817.863281,855.033936 814.481384,853.588074 
	C813.972290,855.418518 813.519714,857.045776 813.049500,858.736328 
	C806.640259,855.357300 806.163818,852.833069 812.374878,850.211670 
	C822.105957,846.104736 832.291931,842.920410 842.500000,840.131165 
	C864.295410,834.175964 886.235413,828.750916 908.097351,823.036865 
	C911.210754,822.223145 914.201538,821.516113 915.686584,817.632996 
	C916.352844,815.890747 919.739624,815.101257 921.977661,814.064575 
	C927.778931,811.377380 933.669434,808.853394 937.821106,803.786804 
	C937.625610,803.380554 937.430176,802.974243 937.234741,802.567993 
	C930.949341,805.025879 924.506714,807.147461 918.405579,809.999573 
	C891.501892,822.576416 863.295654,830.307495 833.860657,834.075684 
	C827.049072,834.947693 820.393372,837.532898 813.849854,839.849487 
	C808.429810,841.768433 803.238525,843.215149 798.401001,839.037170 
	C797.202026,838.001648 795.972290,835.743958 796.296997,834.428223 
	C797.465637,829.692871 799.244751,825.519775 796.283142,820.372864 
	C794.599304,817.446411 795.668945,812.935608 795.442749,807.893860 
	C803.258179,811.189514 810.135193,814.277588 817.165527,816.964905 
	C820.133972,818.099548 823.455505,819.088318 826.564758,818.953064 
	C849.788818,817.942810 871.747864,811.617065 893.025330,802.570068 
	C904.187988,797.823547 915.404602,793.203613 926.603516,788.542480 
	C931.490295,786.508606 935.789429,786.104553 940.896179,789.384155 
	C947.406860,793.565491 954.917236,796.190308 962.336182,799.660767 
M818.095825,829.001038 
	C820.851562,826.459961 819.762146,824.487305 816.677429,824.462463 
	C813.760071,824.438904 810.831238,825.833679 807.907471,826.604614 
	C808.025024,827.508789 808.142578,828.412903 808.260193,829.317078 
	C811.303040,829.317078 814.345886,829.317078 818.095825,829.001038 
z"/>
<path fill="#FFFBFB" opacity="1.000000" stroke="none" 
	d="
M621.112671,851.190186 
	C621.968140,845.870972 622.774048,840.988098 623.687134,835.455505 
	C629.978149,836.679565 635.922180,837.836121 641.785217,838.976929 
	C641.037659,851.834106 625.469055,875.912659 616.629028,877.620789 
	C618.130188,868.820312 619.596619,860.223389 621.112671,851.190186 
z"/>
<path fill="#FFFBFB" opacity="1.000000" stroke="none" 
	d="
M739.791870,843.892639 
	C741.099548,845.011108 742.643311,846.054199 742.735596,847.212830 
	C743.182495,852.821960 744.132812,858.562195 741.033386,864.808716 
	C740.021729,863.227905 739.141846,862.424988 738.974609,861.494080 
	C738.187439,857.111877 737.353699,852.709900 737.074890,848.281006 
	C736.985657,846.864441 738.550781,845.343628 739.791870,843.892639 
z"/>
<path fill="#FFEAEA" opacity="1.000000" stroke="none" 
	d="
M880.785156,883.181519 
	C878.992310,878.597290 877.350464,874.357056 875.708679,870.116882 
	C881.389160,875.120483 889.921753,878.812988 884.124207,888.802063 
	C883.098511,887.104431 882.017334,885.315002 880.785156,883.181519 
z"/>
<path fill="#FFFBFB" opacity="1.000000" stroke="none" 
	d="
M941.516479,884.639343 
	C944.145813,887.883728 942.785034,888.997925 939.636230,889.087402 
	C935.437195,889.206726 933.130676,886.676392 932.465210,879.853149 
	C935.897827,881.619690 938.570801,882.995239 941.516479,884.639343 
z"/>
<path fill="#FFEAEA" opacity="1.000000" stroke="none" 
	d="
M918.493896,864.448975 
	C922.223206,867.764954 925.952576,871.080872 929.681885,874.396851 
	C929.336243,874.767212 928.990540,875.137634 928.644897,875.507996 
	C923.305481,874.361938 920.811829,869.860962 918.065552,865.303345 
	C918.195923,864.795166 918.493896,864.448975 918.493896,864.448975 
z"/>
<path fill="#FFEAEA" opacity="1.000000" stroke="none" 
	d="
M597.743896,877.963501 
	C599.899292,876.473694 601.755310,875.219788 603.922119,873.755920 
	C603.526062,881.913879 602.555847,882.830994 595.588318,881.504456 
	C596.276184,880.279602 596.860352,879.239441 597.743896,877.963501 
z"/>
<path fill="#FFEAEA" opacity="1.000000" stroke="none" 
	d="
M984.791748,838.480896 
	C983.169189,837.617737 981.931152,836.940552 980.693115,836.263428 
	C980.845154,835.689453 980.997192,835.115540 981.149231,834.541565 
	C984.838501,835.157959 988.527710,835.774353 992.216980,836.390686 
	C992.150391,837.149414 992.083862,837.908203 992.017273,838.666931 
	C989.736938,838.666931 987.456665,838.666931 984.791748,838.480896 
z"/>
<path fill="#FFEAEA" opacity="1.000000" stroke="none" 
	d="
M999.937805,893.974365 
	C998.758911,894.775208 997.290771,896.552063 996.469177,896.291382 
	C992.206482,894.938660 989.427124,891.811890 987.564636,887.939514 
	C987.955261,887.530212 988.345947,887.120911 988.736633,886.711609 
	C990.260376,888.356445 991.896179,889.913086 993.278442,891.669312 
	C994.876770,893.700073 996.271667,895.860168 999.686157,894.129639 
	C1000.020020,894.022888 999.946777,894.010315 999.937805,893.974365 
z"/>
<path fill="#FFEAEA" opacity="1.000000" stroke="none" 
	d="
M500.970825,835.977600 
	C498.984283,837.583740 497.131287,839.422729 494.943146,840.677185 
	C494.110962,841.154175 492.508575,840.287842 491.257233,840.033752 
	C492.033600,839.024231 492.614655,837.493164 493.627075,837.113892 
	C495.726868,836.327637 498.055786,836.153137 500.657043,835.872742 
	C501.023590,836.018372 500.970825,835.977600 500.970825,835.977600 
z"/>
<path fill="#FFFFFF" opacity="1.000000" stroke="none" 
	d="
M556.010010,874.980957 
	C556.413330,874.557251 557.072815,874.371704 557.732239,874.186157 
	C557.607056,874.571594 557.481934,874.956970 557.085083,875.498535 
	C556.630920,875.509583 556.448547,875.364380 556.010010,874.980957 
z"/>
<path fill="#FFEAEA" opacity="1.000000" stroke="none" 
	d="
M875.478516,868.606079 
	C875.466064,868.648987 875.490906,868.563110 875.478516,868.606079 
z"/>
<path fill="#FFEAEA" opacity="1.000000" stroke="none" 
	d="
M501.051514,836.036560 
	C501.064697,835.834900 501.031036,835.613281 501.052216,835.396912 
	C501.056091,835.357178 501.282501,835.339111 501.406189,835.311035 
	C501.433929,835.500793 501.461639,835.690552 501.230103,835.928955 
	C500.970825,835.977600 501.023590,836.018372 501.051514,836.036560 
z"/>
<path fill="#FFEAEA" opacity="1.000000" stroke="none" 
	d="
M918.034302,864.956543 
	C917.668091,864.905151 917.463501,864.692444 917.258911,864.479797 
	C917.535156,864.388733 917.811462,864.297668 918.290771,864.327759 
	C918.493896,864.448975 918.195923,864.795166 918.034302,864.956543 
z"/>
<path fill="#FF1C1C" opacity="1.000000" stroke="none" 
	d="
M817.742310,829.159058 
	C814.345886,829.317078 811.303040,829.317078 808.260193,829.317078 
	C808.142578,828.412903 808.025024,827.508789 807.907471,826.604614 
	C810.831238,825.833679 813.760071,824.438904 816.677429,824.462463 
	C819.762146,824.487305 820.851562,826.459961 817.742310,829.159058 
z"/>
</svg>